<svg xmlns="http://www.w3.org/2000/svg" viewBox="0 0 600.29999 162.33749">
    <path d="M115.622 69.478H65.176c-1.302 0-2.357 1.056-2.357 2.36V96.5c0 1.3 1.05 2.36 2.35 2.36h19.68v30.643s-4.42 1.506-16.64 1.506c-14.42 0-34.55-5.27-34.55-49.54 0-44.29 20.96-50.11 40.64-50.11 17.04 0 24.38 3 29.05 4.44 1.46.45 2.82-1.01 2.82-2.32l5.63-23.83c0-.61-.208-1.34-.9-1.84-1.89-1.35-13.46-7.82-42.69-7.82C34.54-.01 0 14.32 0 83.19c0 68.878 39.55 79.14 72.877 79.14 27.595 0 44.336-11.79 44.336-11.79.69-.382.764-1.346.764-1.79V71.83c0-1.302-1.054-2.358-2.355-2.358m259.972-61.23c0-1.313-1.04-2.37-2.34-2.37H344.85c-1.3 0-2.355 1.057-2.355 2.37l.008 54.89H298.23V8.244c0-1.31-1.045-2.37-2.344-2.37h-28.402c-1.293 0-2.346 1.06-2.346 2.37v148.63c0 1.31 1.053 2.38 2.346 2.38h28.402c1.3 0 2.344-1.07 2.344-2.38V93.3h44.274l-.078 63.575c0 1.31 1.054 2.38 2.353 2.38h28.47c1.3 0 2.34-1.07 2.34-2.38V8.245M169.22 27.75c0-10.227-8.2-18.492-18.316-18.492-10.106 0-18.313 8.265-18.313 18.492 0 10.217 8.21 18.504 18.32 18.504 10.12 0 18.32-8.287 18.32-18.504m-2.03 97.773V56.915c0-1.303-1.05-2.367-2.35-2.367h-28.32c-1.3 0-2.46 1.34-2.46 2.642v98.294c0 2.89 1.8 3.747 4.13 3.747h25.51c2.8 0 3.49-1.37 3.49-3.79v-29.91m316.34-70.76h-28.18c-1.29 0-2.34 1.07-2.34 2.38v72.88s-7.16 5.24-17.33 5.24c-10.17 0-12.86-4.61-12.86-14.56V57.15c0-1.31-1.05-2.377-2.35-2.377h-28.6c-1.29 0-2.35 1.067-2.35 2.378v68.37c0 29.56 16.47 36.79 39.135 36.79 18.59 0 33.58-10.27 33.58-10.27s.71 5.41 1.036 6.06c.325.64 1.166 1.29 2.075 1.29l18.2-.08c1.29 0 2.34-1.07 2.34-2.37l-.005-99.77c0-1.31-1.058-2.37-2.357-2.37m65.92 80.4c-9.78-.3-16.41-4.734-16.41-4.734V83.38s6.54-4.01 14.57-4.727c10.15-.91 19.93 2.156 19.93 26.37 0 25.53-4.417 30.57-18.09 30.158zm11.12-83.744c-16.01 0-26.9 7.14-26.9 7.14V8.246c0-1.31-1.05-2.37-2.345-2.37h-28.48c-1.296 0-2.348 1.06-2.348 2.37v148.63c0 1.31 1.05 2.38 2.35 2.38h19.76c.89 0 1.564-.46 2.06-1.264.49-.79 1.2-6.85 1.2-6.85s11.64 11.04 33.69 11.04c25.885 0 40.73-13.13 40.73-58.94s-23.71-51.8-39.73-51.8m-311.75 3.1h-21.3l-.03-28.15c0-1.06-.55-1.6-1.78-1.6h-29.03c-1.13 0-1.736.5-1.736 1.58v29.09s-14.55 3.51-15.534 3.8c-.98.29-1.7 1.19-1.7 2.27V79.8c0 1.315 1.05 2.375 2.34 2.375h14.885v43.974c0 32.66 22.91 35.87 38.37 35.87 7.064 0 15.514-2.27 16.91-2.79.844-.31 1.334-1.19 1.334-2.13l.022-20.11c0-1.31-1.11-2.37-2.358-2.37-1.24 0-4.418.5-7.688.5-10.464 0-14.01-4.87-14.01-11.17V82.16h21.31c1.3 0 2.35-1.06 2.35-2.37V56.9c0-1.31-1.05-2.367-2.35-2.367"/>
</svg>