<svg xmlns="http://www.w3.org/2000/svg" viewBox="0 0 512 512">
    <path d="M472.08 81.12c-26.96-27.572-63.022-42.757-101.546-42.757-37.93 0-73.593 14.773-100.42 41.602L256.266 93.82l-13.86-13.86c-26.825-26.825-62.48-41.598-100.4-41.598-37.93 0-73.593 14.773-100.417 41.6C14.77 106.78 0 142.438 0 180.37s14.77 73.59 41.59 100.41l177.482 177.48c10.253 10.25 23.717 15.377 37.184 15.377 13.464 0 26.93-5.126 37.18-15.376l176.34-176.32c55.385-55.38 56.42-145.47 2.304-200.82zm-20.897 182.226L274.845 439.67c-10.25 10.25-26.93 10.25-37.18 0L60.18 262.186c-21.853-21.853-33.888-50.91-33.888-81.817s12.035-59.97 33.89-81.82c21.858-21.86 50.918-33.9 81.825-33.9 30.896 0 59.95 12.03 81.81 33.89l13.865 13.865-21.233 21.25c-5.14 5.135-5.13 13.46 0 18.59 2.562 2.565 5.93 3.847 9.29 3.847 3.364 0 6.73-1.287 9.3-3.855l53.654-53.7c21.86-21.86 50.92-33.9 81.826-33.9 31.39 0 60.776 12.377 82.748 34.848 44.1 45.1 43.16 118.6-2.09 163.85z"/>
    <path d="M466.29 174.403c-1.445-23.38-11.35-45.366-27.89-61.91-11.713-11.71-26.246-20.22-42.027-24.614-6.995-1.95-14.242 2.14-16.188 9.14-1.946 6.99 2.147 14.24 9.142 16.19 11.427 3.17 21.967 9.36 30.482 17.87 12 12 19.19 27.96 20.24 44.94.43 6.97 6.21 12.33 13.11 12.33.27 0 .54-.01.82-.028 7.24-.444 12.75-6.68 12.31-13.93z"/>
</svg>